<svg width="18" height="19" viewBox="0 0 18 19" fill="none" xmlns="http://www.w3.org/2000/svg">
<path d="M14.2959 6.39049C14.1914 6.28595 14.0674 6.20302 13.9308 6.14643C13.7943 6.08985 13.648 6.06073 13.5002 6.06073C13.3524 6.06073 13.206 6.08985 13.0695 6.14643C12.9329 6.20302 12.8089 6.28595 12.7044 6.39049L9.26491 9.82924C9.19458 9.89954 9.09922 9.93903 8.99978 9.93903C8.90034 9.93903 8.80498 9.89954 8.73466 9.82924L5.29591 6.39049C5.08496 6.17944 4.79881 6.06084 4.50042 6.06077C4.20203 6.0607 3.91583 6.17917 3.70478 6.39011C3.49374 6.60106 3.37513 6.8872 3.37506 7.1856C3.37499 7.48399 3.49346 7.77019 3.70441 7.98124L7.14391 11.4207C7.38766 11.6645 7.67705 11.8579 7.99555 11.9898C8.31405 12.1218 8.65541 12.1897 9.00016 12.1897C9.3449 12.1897 9.68626 12.1218 10.0048 11.9898C10.3233 11.8579 10.6126 11.6645 10.8564 11.4207L14.2959 7.98124C14.5068 7.77027 14.6253 7.48417 14.6253 7.18586C14.6253 6.88755 14.5068 6.60146 14.2959 6.39049Z" fill="black"/>
</svg>
